<svg width="43" height="43" viewBox="0 0 43 43" fill="none" xmlns="http://www.w3.org/2000/svg">
<path fill-rule="evenodd" clip-rule="evenodd" d="M32.6294 10.347L27.0706 19.7103C27.795 20.1175 28.4662 20.6286 29.0619 21.2344C30.7343 22.9351 31.6744 25.2418 31.6744 27.6471V29.1026C34.9852 30.1444 37.3151 32.6117 37.3151 35.4866C37.3151 39.3022 33.2116 42.4 28.1563 42.4C25.3261 42.4 22.794 41.4289 21.1133 39.9045C19.4327 41.4289 16.9006 42.4 14.0703 42.4C9.01536 42.4 4.91128 39.3022 4.91128 35.4866C4.91128 32.6117 7.24127 30.1444 10.5524 29.1026V27.3283C10.5524 24.5254 11.8484 22.0303 13.8644 20.4289C12.3771 19.2672 10.4499 16.2565 6.96378 12.9044C0.679528 6.86189 0.399902 0.906439 0.399902 0.906439C0.399902 0.906439 1.29497 -1.3612 8.18539 3.70058C14.3638 8.23927 16.0527 17.2464 16.3359 19.0594C17.2199 18.7476 18.1694 18.5781 19.1578 18.5781H22.7551C23.9185 18.5781 25.0583 18.8092 26.1155 19.2463C26.7562 15.5859 29.0879 3.37323 31.6744 3.36886C34.7164 3.36359 38.729 5.85908 40.9393 10.3356C43.1487 14.8121 44.8333 16.5159 38.2543 14.1137C32.0202 11.8378 32.5561 10.4832 32.6294 10.347ZM21.1133 34.193L21.7241 33.028L22.7126 32.033L21.1133 32.2029L19.514 32.033L20.5025 33.028L21.1133 34.193ZM26.606 26.1142C25.9159 25.8977 25.1473 26.4089 24.8906 27.2551C24.634 28.1012 24.9857 28.9638 25.6758 29.1803C26.3658 29.3968 27.1345 28.8855 27.3911 28.0394C27.6478 27.1933 27.2961 26.3307 26.606 26.1142ZM16.0827 26.0721C15.3737 26.2116 14.9325 27.0307 15.0979 27.9001C15.2634 28.7693 15.9733 29.3619 16.6823 29.2224C17.3912 29.0828 17.8325 28.2638 17.667 27.3945C17.5016 26.5251 16.7916 25.9326 16.0827 26.0721Z" fill="#000"/>
</svg>
