<svg width="16" height="16" viewBox="0 0 16 16" fill="none" xmlns="http://www.w3.org/2000/svg">
<path fill-rule="evenodd" clip-rule="evenodd" d="M4.05265 0.5C4.27065 0.5 4.44738 0.67673 4.44738 0.894737L4.44738 2.86845H11.5527L11.5527 0.894737C11.5527 0.676729 11.7294 0.5 11.9474 0.5C12.1654 0.5 12.3421 0.67673 12.3421 0.894737L12.3421 2.86878C12.8957 2.87033 13.3562 2.87919 13.7325 2.92978C14.2062 2.99348 14.6051 3.12973 14.9219 3.44653C15.2387 3.76333 15.375 4.16221 15.4387 4.63595C15.5 5.09225 15.5 5.67241 15.5 6.39219V11.9763C15.5 12.6961 15.5 13.2762 15.4387 13.7325C15.375 14.2063 15.2387 14.6052 14.9219 14.922C14.6051 15.2388 14.2062 15.375 13.7325 15.4387C13.2762 15.5001 12.696 15.5 11.9762 15.5H4.02376C3.30397 15.5 2.7238 15.5001 2.2675 15.4387C1.79376 15.375 1.39488 15.2388 1.07808 14.922C0.761281 14.6052 0.625021 14.2063 0.561328 13.7325C0.499981 13.2762 0.49999 12.6961 0.5 11.9763V6.39221V6.3922C0.49999 5.67242 0.499981 5.09225 0.561328 4.63595C0.625021 4.16221 0.761281 3.76333 1.07808 3.44653C1.39488 3.12973 1.79376 2.99348 2.2675 2.92978C2.64379 2.87919 3.10431 2.87033 3.65791 2.86878L3.65791 0.894737C3.65791 0.676729 3.83464 0.5 4.05265 0.5ZM1.28947 6.42105V6.42109V11.9474C1.28947 12.7029 1.29031 13.2298 1.34376 13.6273C1.39569 14.0135 1.49066 14.218 1.63632 14.3637C1.78199 14.5094 1.9865 14.6043 2.3727 14.6563C2.77025 14.7097 3.29715 14.7106 4.05263 14.7106H11.9474C12.7029 14.7106 13.2298 14.7097 13.6273 14.6563C14.0135 14.6043 14.218 14.5094 14.3637 14.3637C14.5093 14.218 14.6043 14.0135 14.6562 13.6273C14.7097 13.2298 14.7105 12.7029 14.7105 11.9474V6.42109V6.42105H1.28947ZM4.05262 8.78947C4.05262 8.41731 4.05262 8.23123 4.16823 8.11562C4.28385 8 4.46993 8 4.84209 8H6.42104C6.7932 8 6.97928 8 7.0949 8.11562C7.21051 8.23123 7.21051 8.41731 7.21051 8.78947C7.21051 9.16164 7.21051 9.34772 7.0949 9.46333C6.97928 9.57895 6.7932 9.57895 6.42104 9.57895H4.84209C4.46993 9.57895 4.28385 9.57895 4.16823 9.46333C4.05262 9.34772 4.05262 9.16164 4.05262 8.78947ZM4.16823 11.2735C4.05262 11.3891 4.05262 11.5752 4.05262 11.9474C4.05262 12.3196 4.05262 12.5056 4.16823 12.6213C4.28385 12.7369 4.46993 12.7369 4.84209 12.7369H6.42104C6.7932 12.7369 6.97928 12.7369 7.0949 12.6213C7.21051 12.5056 7.21051 12.3196 7.21051 11.9474C7.21051 11.5752 7.21051 11.3891 7.0949 11.2735C6.97928 11.1579 6.7932 11.1579 6.42104 11.1579H4.84209C4.46993 11.1579 4.28385 11.1579 4.16823 11.2735ZM8.7894 8.78947C8.7894 8.41731 8.7894 8.23123 8.90502 8.11562C9.02063 8 9.20671 8 9.57888 8H11.1578C11.53 8 11.7161 8 11.8317 8.11562C11.9473 8.23123 11.9473 8.41731 11.9473 8.78947C11.9473 9.16164 11.9473 9.34772 11.8317 9.46333C11.7161 9.57895 11.53 9.57895 11.1578 9.57895H9.57888C9.20671 9.57895 9.02063 9.57895 8.90502 9.46333C8.7894 9.34772 8.7894 9.16164 8.7894 8.78947ZM8.90502 11.2735C8.7894 11.3891 8.7894 11.5752 8.7894 11.9474C8.7894 12.3196 8.7894 12.5056 8.90502 12.6213C9.02063 12.7369 9.20671 12.7369 9.57888 12.7369H11.1578C11.53 12.7369 11.7161 12.7369 11.8317 12.6213C11.9473 12.5056 11.9473 12.3196 11.9473 11.9474C11.9473 11.5752 11.9473 11.3891 11.8317 11.2735C11.7161 11.1579 11.53 11.1579 11.1578 11.1579H9.57888C9.20671 11.1579 9.02063 11.1579 8.90502 11.2735Z" fill="#333333"/>
</svg>
