<svg width="41" height="31" viewBox="0 0 41 31" fill="none" xmlns="http://www.w3.org/2000/svg">
<path fill-rule="evenodd" clip-rule="evenodd" d="M36.6031 16.8797C38.8741 18.309 40.2091 21.9344 40.2091 21.9344C40.2091 21.9344 31.3349 30.7214 20.4046 30.7214C9.47435 30.7214 0.600098 21.9344 0.600098 21.9344C0.600098 21.9344 1.79655 18.4962 3.85256 17.1112C4.72182 15.8413 9.0626 3.73535 14.4113 3.73535H26.0888C31.4375 3.73535 35.6521 15.589 36.6031 16.8797ZM20.4046 22.697C20.8538 22.697 21.9754 21.0319 21.7508 20.6978C21.5262 20.365 19.283 20.365 19.0584 20.6978C18.8338 21.0319 19.9568 22.697 20.4046 22.697ZM9.71697 15.4462C9.71697 15.4462 17.6762 20.1224 15.7006 15.6735C13.4186 10.537 9.93047 14.868 9.71697 15.4462ZM20.4046 25.7193C21.0174 26.3529 22.0461 26.9379 23.14 27.0128C23.9579 27.0682 24.6428 26.6856 25.1571 26.1158C25.8212 25.3838 26.1692 24.3454 26.2136 23.9392C26.2621 23.4997 25.9446 23.1032 25.5051 23.0546C25.0656 23.0075 24.6705 23.325 24.622 23.7631C24.5998 23.9641 24.4293 24.4147 24.152 24.8126C23.9344 25.1231 23.6557 25.4434 23.2495 25.4157C22.6062 25.3713 22.0017 25.0399 21.6205 24.6712C21.4777 24.5353 21.328 24.2788 21.328 24.2788C21.3113 23.8518 20.9592 23.5108 20.5294 23.5108C20.4864 23.5108 20.4448 23.5149 20.4046 23.5205C20.3644 23.5149 20.3228 23.5108 20.2812 23.5108C19.8501 23.5108 19.4993 23.8518 19.4827 24.2788C19.4827 24.2788 19.3316 24.5353 19.1901 24.6712C18.8075 25.0399 18.203 25.3713 17.5611 25.4157C17.1549 25.4434 16.8749 25.1231 16.6586 24.8126C16.3799 24.4147 16.2108 23.9641 16.1886 23.7631C16.1401 23.325 15.7436 23.0075 15.3041 23.0546C14.866 23.1032 14.5485 23.4997 14.597 23.9392C14.6414 24.3454 14.9894 25.3838 15.6521 26.1158C16.1678 26.6856 16.8513 27.0682 17.6693 27.0128C18.7645 26.9379 19.7932 26.3529 20.4046 25.7193ZM31.0923 15.4462C30.8788 14.868 27.3906 10.537 25.11 15.6735C23.1344 20.1224 31.0923 15.4462 31.0923 15.4462Z" fill="#000"/>
<path fill-rule="evenodd" clip-rule="evenodd" d="M8.56804 6.22944C8.56804 6.22944 11.101 3.29862 12.9157 2.99916C14.7291 2.6997 8.0828 -0.152094 6.47737 0.495349C4.87193 1.14279 8.56804 6.22944 8.56804 6.22944Z" fill="#000"/>
<path fill-rule="evenodd" clip-rule="evenodd" d="M32.3696 6.22944C32.3696 6.22944 29.8367 3.29862 28.0219 2.99916C26.2085 2.6997 32.8549 -0.152094 34.4603 0.495349C36.0657 1.14279 32.3696 6.22944 32.3696 6.22944Z" fill="#000"/>
</svg>
