<svg width="40" height="40" viewBox="0 0 40 40" fill="none" xmlns="http://www.w3.org/2000/svg">
<path fill-rule="evenodd" clip-rule="evenodd" d="M23.7161 11.0266C23.9713 11.4094 24.855 12.6447 26.1156 13.5056C26.5382 13.7933 26.9993 14.0377 27.4906 14.2075C28.0336 15.2465 28.3406 16.4288 28.3406 17.681C28.3406 17.681 28.3406 20.9956 27.4954 22.3669C27.3232 22.645 27.1522 22.9882 26.9729 23.3722C26.124 22.9713 25.0766 22.6655 23.8124 22.4861C23.9846 22.1213 24.0652 21.7974 24.0652 21.5855V20.9462C24.0652 20.4321 23.8894 19.971 23.6246 19.6327L23.3765 19.3726L23.0671 19.1583L22.6999 19.0138L22.2905 18.9608H17.0171L16.6089 19.0138L16.2417 19.1583L15.9323 19.3726L15.6831 19.6327C15.4182 19.971 15.2436 20.4321 15.2436 20.9462V21.5855C15.2436 21.8215 15.3291 22.1574 15.5217 22.5331C14.5128 22.7269 13.558 23.0411 12.7177 23.4433C12.5395 23.0303 12.3649 22.6619 12.1831 22.3669C11.3258 20.9751 10.9683 17.681 10.9683 17.681C10.9683 16.9971 11.0598 16.3337 11.2307 15.704C12.2782 15.1839 13.1679 14.4242 13.8157 13.6609C14.5453 12.8 14.9583 11.9211 15.0401 11.3577C15.057 11.2493 15.0714 11.1181 15.0835 10.9712C16.1081 10.4474 17.2675 10.1537 18.4968 10.1537H20.8121C21.7656 10.1537 22.677 10.3307 23.5162 10.6545C23.5475 10.7304 23.5728 10.7846 23.5848 10.8098C23.5848 10.8098 23.7197 11.029 23.7161 11.0266C23.6932 10.9928 23.6751 10.9652 23.6631 10.9459C23.6992 11.0037 23.7137 11.0266 23.7161 11.0266ZM15.5976 14.6469C14.7416 14.6469 14.0457 15.8232 14.0457 16.6805C14.0457 17.5377 14.7993 17.2427 15.6566 17.2427C16.5126 17.2427 17.1495 16.4987 17.1495 15.6414C17.1495 14.7842 16.4548 14.6469 15.5976 14.6469ZM23.71 14.6469C22.854 14.6469 22.1689 14.7842 22.1689 15.6414C22.1689 16.4987 22.8444 17.2524 23.7016 17.2524C24.5577 17.2524 25.1416 17.6027 25.1416 16.7455C25.1416 15.8883 24.5673 14.6469 23.71 14.6469Z" fill="#E7AC07"/>
<path fill-rule="evenodd" clip-rule="evenodd" d="M19.2301 25.8464V30.9128C18.4752 31.9482 16.8751 32 15.0257 32C12.4492 32 10.3567 30.0531 10.3567 27.6548C10.3567 25.614 13.0295 23.9249 16.125 23.4469C16.5259 23.9718 17.0147 24.5172 17.4012 24.9097C17.955 25.4732 18.5823 25.7742 19.2301 25.8464ZM23.2393 23.4252C27.2173 23.8755 28.9523 25.5382 28.9523 27.6548C28.9523 30.0531 26.8597 32 24.2832 32C22.4339 32 20.8338 31.9482 20.0777 30.9128V25.8175C20.7013 25.7056 21.3262 25.4046 21.9101 24.941C22.2316 24.687 22.7866 24.0573 23.2393 23.4252Z" fill="#E7AC07"/>
<path fill-rule="evenodd" clip-rule="evenodd" d="M23.0611 20.9462V21.5855C23.0611 22.1273 21.815 23.7358 21.2865 24.1548C20.2559 24.9735 19.0434 25.1481 18.1152 24.2066C17.3843 23.4625 16.2466 22.1273 16.2466 21.5855V20.9462C16.2466 20.4044 16.5921 19.965 17.0171 19.965H22.2906C22.7168 19.965 23.0611 20.4044 23.0611 20.9462Z" fill="#E7AC07"/>
<path fill-rule="evenodd" clip-rule="evenodd" d="M14.0482 11.2131C14.2095 10.1031 14.3154 6.24188 10.211 8.93881C6.10786 11.6357 4.54629 13.3984 3.44223 13.998C2.33818 14.5975 6.59427 15.7377 9.24424 15.3103C11.8942 14.8841 13.8868 12.3232 14.0482 11.2131Z" fill="#E7AC07"/>
<path fill-rule="evenodd" clip-rule="evenodd" d="M24.4927 10.3824C24.4927 10.3824 22.9456 7.38571 28.0842 8.11412C33.224 8.84254 34.4966 8.54997 35.8499 8.61257C37.202 8.67518 32.8797 12.3895 29.8745 13.3093C26.8682 14.2292 24.4927 10.3824 24.4927 10.3824Z" fill="#E7AC07"/>
</svg>
