<svg width="48" height="48" viewBox="0 0 48 48" fill="none" xmlns="http://www.w3.org/2000/svg">
<path fill-rule="evenodd" clip-rule="evenodd" d="M28.4592 13.2318C28.7655 13.6912 29.826 15.1736 31.3387 16.2066C31.8458 16.5519 32.3992 16.8452 32.9886 17.0489C33.6402 18.2958 34.0086 19.7145 34.0086 21.2171C34.0086 21.2171 34.0086 25.1946 32.9944 26.8402C32.7878 27.174 32.5826 27.5857 32.3674 28.0466C31.3488 27.5655 30.0918 27.1985 28.5748 26.9832C28.7814 26.5455 28.8782 26.1568 28.8782 25.9025V25.1354C28.8782 24.5184 28.6673 23.9651 28.3494 23.5591L28.0518 23.247L27.6805 22.9899L27.2398 22.8165L26.7486 22.7529H20.4205L19.9307 22.8165L19.49 22.9899L19.1187 23.247L18.8196 23.5591C18.5018 23.9651 18.2923 24.5184 18.2923 25.1354V25.9025C18.2923 26.1857 18.3949 26.5888 18.626 27.0396C17.4153 27.2722 16.2696 27.6493 15.2611 28.1318C15.0473 27.6363 14.8378 27.1942 14.6197 26.8402C13.591 25.17 13.1619 21.2171 13.1619 21.2171C13.1619 20.3965 13.2717 19.6004 13.4768 18.8448C14.7338 18.2206 15.8015 17.309 16.5788 16.393C17.4543 15.36 17.9499 14.3053 18.0481 13.6291C18.0683 13.4991 18.0857 13.3416 18.1001 13.1653C19.3296 12.5369 20.721 12.1843 22.1961 12.1843H24.9744C26.1187 12.1843 27.2124 12.3967 28.2194 12.7854C28.257 12.8764 28.2873 12.9414 28.3018 12.9717C28.3018 12.9717 28.4636 13.2347 28.4592 13.2318C28.4318 13.1913 28.4101 13.1581 28.3957 13.135C28.439 13.2043 28.4563 13.2318 28.4592 13.2318ZM18.7171 17.5763C17.6898 17.5763 16.8547 18.9878 16.8547 20.0165C16.8547 21.0452 17.7592 20.6912 18.7879 20.6912C19.8151 20.6912 20.5794 19.7983 20.5794 18.7696C20.5794 17.741 19.7457 17.5763 18.7171 17.5763ZM28.452 17.5763C27.4248 17.5763 26.6027 17.741 26.6027 18.7696C26.6027 19.7983 27.4132 20.7028 28.4419 20.7028C29.4691 20.7028 30.1699 21.1232 30.1699 20.0945C30.1699 19.0658 29.4807 17.5763 28.452 17.5763Z" fill="#000"/>
<path fill-rule="evenodd" clip-rule="evenodd" d="M23.076 31.0157V37.0953C22.1702 38.3379 20.25 38.4 18.0308 38.4C14.939 38.4 12.428 36.0638 12.428 33.1858C12.428 30.7368 15.6354 28.7098 19.3499 28.1362C19.831 28.7662 20.4176 29.4206 20.8814 29.8916C21.546 30.5678 22.2987 30.929 23.076 31.0157ZM27.8872 28.1102C32.6607 28.6506 34.7427 30.6458 34.7427 33.1858C34.7427 36.0638 32.2316 38.4 29.1398 38.4C26.9206 38.4 25.0005 38.3379 24.0932 37.0953V30.981C24.8416 30.8466 25.5914 30.4855 26.2921 29.9292C26.6779 29.6244 27.3439 28.8687 27.8872 28.1102Z" fill="#000"/>
<path fill-rule="evenodd" clip-rule="evenodd" d="M27.6733 25.1354V25.9026C27.6733 26.5527 26.178 28.4829 25.5437 28.9857C24.307 29.9682 22.8521 30.1777 21.7382 29.0479C20.8612 28.155 19.4958 26.5527 19.4958 25.9026V25.1354C19.4958 24.4852 19.9105 23.9579 20.4205 23.9579H26.7487C27.2601 23.9579 27.6733 24.4852 27.6733 25.1354Z" fill="#000"/>
<path fill-rule="evenodd" clip-rule="evenodd" d="M16.8577 13.4557C17.0513 12.1237 17.1785 7.49024 12.2532 10.7266C7.32938 13.9629 5.4555 16.078 4.13063 16.7975C2.80577 17.517 7.91308 18.8852 11.093 18.3723C14.273 17.8609 16.6641 14.7878 16.8577 13.4557Z" fill="#000"/>
<path fill-rule="evenodd" clip-rule="evenodd" d="M29.3912 12.4589C29.3912 12.4589 27.5346 8.86283 33.7009 9.73692C39.8687 10.611 41.3959 10.2599 43.0198 10.3351C44.6423 10.4102 39.4555 14.8673 35.8493 15.9712C32.2417 17.075 29.3912 12.4589 29.3912 12.4589Z" fill="#000"/>
</svg>
