<svg viewBox="0 0 22 29" fill="none" xmlns="http://www.w3.org/2000/svg">
<path fill-rule="evenodd" clip-rule="evenodd" d="M21.2595 7.03236C21.1111 9.56755 20.9369 12.9769 20.9369 15.0325C20.9369 18.4442 21.4667 25.2548 21.4667 25.2548C21.4667 27.0462 19.9963 28.5 18.1846 28.5H4.09438C2.28381 28.5 0.813461 27.0462 0.813461 25.2548C0.813461 25.2548 0 18.1974 0 14.7206C0 11.1355 0.813461 3.74523 0.813461 3.74523C0.813461 1.95384 2.28381 0.5 4.09438 0.5H14.3468V3.64745C14.3468 5.51567 15.8796 7.03236 17.769 7.03236H21.2595ZM3.11846 12.005C3.11846 12.005 4.145 11.9479 8.0887 13.0898C10.2195 13.7067 12.4385 13.5042 14.3445 13.1003C16.1656 12.7127 17.6854 12.1412 18.5189 11.9922C18.8014 11.9421 18.9898 11.6744 18.9392 11.3939C18.8885 11.1145 18.6178 10.9283 18.3341 10.9795C17.4935 11.1285 15.9608 11.7035 14.1255 12.0934C12.3761 12.4647 10.3372 12.6684 8.38065 12.1016C4.15089 10.8759 3.04077 10.9783 3.04077 10.9783C2.7547 11.0004 2.53927 11.2472 2.56046 11.5301C2.58283 11.8141 2.8324 12.0259 3.11846 12.005ZM2.43097 17.5153C2.43097 17.5153 3.45633 17.4583 7.40003 18.6002C9.5308 19.2171 11.7499 19.0146 13.6558 18.6107C15.477 18.2231 16.9967 17.6515 17.8302 17.5025C18.1128 17.4525 18.3011 17.1848 18.2505 16.9042C18.1999 16.6249 17.9291 16.4386 17.6454 16.4899C16.8049 16.6389 15.2721 17.2139 13.4368 17.6038C11.6875 17.9751 9.64852 18.1788 7.69198 17.612C3.46221 16.3863 2.35209 16.4887 2.35209 16.4887C2.06603 16.5096 1.8506 16.7576 1.87179 17.0404C1.89415 17.3244 2.14372 17.5363 2.43097 17.5153ZM2.43097 22.6439C2.43097 22.6439 3.45633 22.5857 7.40003 23.7288C9.5308 24.3457 11.7499 24.1432 13.6558 23.7381C15.477 23.3516 16.9967 22.7789 17.8302 22.6311C18.1128 22.5799 18.3011 22.3122 18.2505 22.0328C18.1999 21.7535 17.9291 21.5672 17.6454 21.6173C16.8049 21.7674 15.2721 22.3424 13.4368 22.7312C11.6875 23.1037 9.64852 23.3074 7.69198 22.7405C3.46221 21.5148 2.35209 21.6173 2.35209 21.6173C2.06603 21.6382 1.8506 21.885 1.87179 22.169C1.89415 22.4519 2.14372 22.6649 2.43097 22.6439ZM15.3875 0.5C15.3875 0.5 15.5817 0.56402 15.6971 0.589628C16.9167 0.858512 17.3688 2.82451 18.1351 3.59158C18.6837 4.14099 20.745 4.58098 21.2901 6.00222H17.769C16.4552 6.00222 15.3875 4.94764 15.3875 3.64745V0.5Z" fill="#000"/>
</svg>
