<svg width="25" height="26" viewBox="0 0 25 26" fill="none" xmlns="http://www.w3.org/2000/svg">
<path fill-rule="evenodd" clip-rule="evenodd" d="M12.8528 11.9867C15.1018 11.9867 16.9118 14.1217 18.6088 16.5077C20.5388 19.2217 22.2099 21.4187 20.8948 23.8447C19.6599 26.1247 16.0028 25.5987 12.6328 25.5987C9.26385 25.5987 6.18285 26.1247 4.94685 23.8447C3.68485 21.5167 4.94285 19.1677 6.72085 16.5077C8.42285 13.9587 10.5018 11.9867 12.8528 11.9867Z" fill="#FFFEFC"/>
<path fill-rule="evenodd" clip-rule="evenodd" d="M18.8268 1.17569C21.1138 2.06669 21.6258 4.68469 20.8448 7.66469C20.0628 10.6447 17.3779 12.1367 15.9949 11.9747C14.0329 11.7447 13.1958 8.46569 13.9768 5.48569C14.7588 2.50569 16.3698 0.218691 18.8268 1.17569Z" fill="#FFFEFC"/>
<path fill-rule="evenodd" clip-rule="evenodd" d="M23.4708 11.1907C21.9018 9.9857 20.7318 10.3517 19.6198 12.1837C18.5088 14.0157 18.6608 15.5057 19.6308 16.1627C20.8398 16.9807 21.5698 16.9937 23.3178 15.4867C24.8928 14.1277 24.6028 12.0607 23.4708 11.1907Z" fill="#FFFEFC"/>
<path fill-rule="evenodd" clip-rule="evenodd" d="M1.3159 9.2287C2.7819 8.1477 4.1959 9.1297 5.3119 10.9587C6.4279 12.7877 6.8249 14.7747 5.3589 15.8567C3.8929 16.9387 1.7969 16.3317 0.680901 14.5027C-0.434099 12.6737 -0.150099 10.3107 1.3159 9.2287Z" fill="#FFFEFC"/>
<path fill-rule="evenodd" clip-rule="evenodd" d="M7.5398 0.622717C10.3828 -0.097283 11.4598 2.45572 11.9438 5.53972C12.4278 8.62272 11.1158 11.6877 9.7218 11.9487C7.7748 12.3147 5.3728 9.96172 4.8888 6.87872C4.4058 3.79472 4.9178 1.28572 7.5398 0.622717Z" fill="#FFFEFC"/>
</svg>
