<svg width="33" height="27" viewBox="0 0 33 27" fill="none" xmlns="http://www.w3.org/2000/svg">
<path fill-rule="evenodd" clip-rule="evenodd" d="M31.8975 1.29293C33.0917 2.69176 30.7599 9.51411 30.7599 9.51411L23.6011 1.12352C23.6011 1.12352 30.7046 -0.104715 31.8975 1.29293Z" fill="#FFFEFC"/>
<path fill-rule="evenodd" clip-rule="evenodd" d="M28.9447 11.0623L22.1753 16.8388C21.7129 17.2341 21.0153 17.1788 20.62 16.7153L14.8929 10.0035C14.4976 9.53997 14.5529 8.8435 15.0165 8.44821L21.7859 2.67174C22.2494 2.27644 22.9459 2.33174 23.3412 2.79527L29.0682 9.50703C29.4635 9.97056 29.4082 10.667 28.9447 11.0623Z" fill="#FFFEFC"/>
<path fill-rule="evenodd" clip-rule="evenodd" d="M20.0836 18.0589C20.0836 18.0589 20.3648 24.5024 18.3471 23.36C16.3283 22.2165 8.78476 13.3765 7.97417 11.2036C7.16358 9.03062 13.4812 10.3224 13.4812 10.3224L20.0836 18.0589Z" fill="#FFFEFC"/>
<path fill-rule="evenodd" clip-rule="evenodd" d="M3.68817 19.6259C4.90817 17.4753 6.94464 16.0471 9.12935 16.7576C11.3141 17.4694 12.807 18.8353 13.1188 20.7376C13.3799 22.34 12.7905 24.1212 11.2623 25.2071C10.2058 25.9576 8.73405 26.4635 8.35523 26.5318C7.02582 26.7718 5.61758 26.4259 5.61758 26.4259C5.61758 26.4259 9.21288 26.0141 8.66464 24.0647C8.44229 23.2729 7.82229 23.4435 6.46464 24.12C5.36699 24.6671 3.05052 24.9423 3.05052 24.9423C3.05052 24.9423 4.82464 23.8506 5.57405 23.0188C6.51876 21.9694 6.61052 21.1247 5.94347 20.9212C4.76347 20.5612 4.70699 22.2553 3.20935 22.0835C1.7117 21.9118 0.97876 21.3623 0.97876 21.3623C0.97876 21.3623 2.46935 21.7765 3.68817 19.6259Z" fill="#FFFEFC"/>
</svg>
