<svg width="16" height="16" viewBox="0 0 16 16" fill="none" xmlns="http://www.w3.org/2000/svg">
<path fill-rule="evenodd" clip-rule="evenodd" d="M15.5 8C15.5 12.1421 12.1421 15.5 8 15.5C3.85786 15.5 0.5 12.1421 0.5 8C0.5 3.85786 3.85786 0.5 8 0.5C12.1421 0.5 15.5 3.85786 15.5 8ZM8 14.6667C11.6819 14.6667 14.6667 11.6819 14.6667 8C14.6667 4.3181 11.6819 1.33333 8 1.33333C4.3181 1.33333 1.33333 4.3181 1.33333 8C1.33333 11.6819 4.3181 14.6667 8 14.6667Z" fill="#333333"/>
<path fill-rule="evenodd" clip-rule="evenodd" d="M7.90909 5C8.13503 5 8.31818 5.19898 8.31818 5.44444V8.11111H11.5909C11.8168 8.11111 12 8.3101 12 8.55556C12 8.80102 11.8168 9 11.5909 9H8.11364C7.77473 9 7.5 8.70152 7.5 8.33333V5.44444C7.5 5.19898 7.68316 5 7.90909 5Z" fill="#333333"/>
</svg>
